<svg width="17" height="17" viewBox="0 0 17 17" fill="none" xmlns="http://www.w3.org/2000/svg">
<path fill-rule="evenodd" clip-rule="evenodd" d="M9.19531 0.999756C9.19531 0.447471 8.7476 -0.000244141 8.19531 -0.000244141C7.64303 -0.000244141 7.19531 0.447471 7.19531 0.999756V7.19409H1C0.447715 7.19409 0 7.64181 0 8.19409C0 8.74638 0.447715 9.19409 1 9.19409H7.19531V15.3886C7.19531 15.9409 7.64303 16.3886 8.19531 16.3886C8.7476 16.3886 9.19531 15.9409 9.19531 15.3886V9.19409H15.3889C15.9412 9.19409 16.3889 8.74638 16.3889 8.19409C16.3889 7.64181 15.9412 7.19409 15.3889 7.19409H9.19531V0.999756Z" fill="white"/>
</svg>
