<svg width="15" height="19" viewBox="0 0 15 19" fill="none" xmlns="http://www.w3.org/2000/svg">
<g opacity="0.5">
<path d="M2.30469 1.69193C2.30469 1.05468 2.82128 0.538086 3.45853 0.538086H11.5355C12.1727 0.538086 12.6893 1.05468 12.6893 1.69193V1.69193C12.6893 2.32918 12.1727 2.84578 11.5355 2.84578H3.45853C2.82128 2.84578 2.30469 2.32918 2.30469 1.69193V1.69193Z" fill="black"/>
<path d="M13.9132 5.15234H1.0868C0.501759 5.15234 0.0416689 5.65237 0.0902539 6.23539L0.924608 16.2476C1.05418 17.8025 2.35398 18.9985 3.91424 18.9985H11.0858C12.646 18.9985 13.9458 17.8025 14.0754 16.2476L14.9097 6.23539C14.9583 5.65237 14.4982 5.15234 13.9132 5.15234Z" fill="black"/>
</g>
</svg>
