<svg width="14" height="14" viewBox="0 0 14 14" fill="none" xmlns="http://www.w3.org/2000/svg">
<g opacity="0.9">
<g opacity="0.6">
<mask id="path-1-inside-1_287_16" fill="white">
<path fill-rule="evenodd" clip-rule="evenodd" d="M3 0C1.34315 0 0 1.34314 0 3V7.64C0 9.29685 1.34314 10.64 3 10.64H3.73252C3.49204 10.0335 3.35986 9.37221 3.35986 8.68008C3.35986 5.74192 5.74171 3.36008 8.67986 3.36008C9.37208 3.36008 10.0334 3.49228 10.64 3.73282V3C10.64 1.34315 9.29686 0 7.64 0H3Z"/>
</mask>
<path fill-rule="evenodd" clip-rule="evenodd" d="M3 0C1.34315 0 0 1.34314 0 3V7.64C0 9.29685 1.34314 10.64 3 10.64H3.73252C3.49204 10.0335 3.35986 9.37221 3.35986 8.68008C3.35986 5.74192 5.74171 3.36008 8.67986 3.36008C9.37208 3.36008 10.0334 3.49228 10.64 3.73282V3C10.64 1.34315 9.29686 0 7.64 0H3Z" fill="#E7E7E7"/>
<path d="M3.73252 10.64V11.64H5.20474L4.66212 10.2714L3.73252 10.64ZM10.64 3.73282L10.2714 4.6624L11.64 5.20511V3.73282H10.64ZM1 3C1 1.89543 1.89543 1 3 1V-1C0.790863 -1 -1 0.790855 -1 3H1ZM1 7.64V3H-1V7.64H1ZM3 9.64C1.89543 9.64 1 8.74457 1 7.64H-1C-1 9.84914 0.790855 11.64 3 11.64V9.64ZM3.73252 9.64H3V11.64H3.73252V9.64ZM4.66212 10.2714C4.46738 9.78028 4.35986 9.24394 4.35986 8.68008H2.35986C2.35986 9.50048 2.51669 10.2867 2.80292 11.0086L4.66212 10.2714ZM4.35986 8.68008C4.35986 6.29421 6.29399 4.36008 8.67986 4.36008V2.36008C5.18942 2.36008 2.35986 5.18964 2.35986 8.68008H4.35986ZM8.67986 4.36008C9.2438 4.36008 9.78019 4.46762 10.2714 4.6624L11.0086 2.80324C10.2866 2.51694 9.50036 2.36008 8.67986 2.36008V4.36008ZM9.64 3V3.73282H11.64V3H9.64ZM7.64 1C8.74457 1 9.64 1.89543 9.64 3H11.64C11.64 0.790863 9.84914 -1 7.64 -1V1ZM3 1H7.64V-1H3V1Z" fill="#E7E7E7" mask="url(#path-1-inside-1_287_16)"/>
</g>
<rect x="4.35938" y="4.36011" width="8.64" height="8.64" rx="2" fill="#E7E7E7" stroke="#E7E7E7" stroke-width="2"/>
</g>
</svg>
