<svg width="15" height="15" viewBox="0 0 15 15" fill="none" xmlns="http://www.w3.org/2000/svg">
<path fill-rule="evenodd" clip-rule="evenodd" d="M8.33313 3.66664C8.33313 5.3235 6.98998 6.66664 5.33313 6.66664L2.9998 6.66664C1.34294 6.66664 -0.000203969 5.3235 -0.000203824 3.66664L-0.000203766 2.99997C-0.000203621 1.34312 1.34294 -2.58835e-05 2.9998 -2.57386e-05L5.33313 -2.55346e-05C6.98999 -2.53898e-05 8.33313 1.34312 8.33313 2.99997L8.33313 3.66664ZM0 11.3334C0 9.67651 1.34315 8.33336 3 8.33336H5.33333C6.99019 8.33336 8.33333 9.6765 8.33333 11.3334V12C8.33333 13.6569 6.99019 15 5.33333 15H3C1.34315 15 0 13.6569 0 12V11.3334ZM10 12.5C10 13.8807 11.1193 15 12.5 15V15C13.8807 15 15 13.8807 15 12.5L15 2.5C15 1.11929 13.8807 0 12.5 0V0C11.1193 0 10 1.11929 10 2.5L10 12.5Z" fill="white"/>
</svg>
