<svg width="16" height="16" viewBox="0 0 16 16" fill="none" xmlns="http://www.w3.org/2000/svg">
<path fill-rule="evenodd" clip-rule="evenodd" d="M12.3103 7.15513C12.3103 10.0022 10.0022 12.3103 7.15513 12.3103C4.30803 12.3103 2 10.0022 2 7.15513C2 4.30803 4.30803 2 7.15513 2C10.0022 2 12.3103 4.30803 12.3103 7.15513ZM11.4581 12.8723C10.2606 13.775 8.77036 14.3103 7.15513 14.3103C3.20346 14.3103 0 11.1068 0 7.15513C0 3.20346 3.20346 0 7.15513 0C11.1068 0 14.3103 3.20346 14.3103 7.15513C14.3103 8.77032 13.7751 10.2605 12.8723 11.458L15.6012 14.1869C15.9918 14.5775 15.9918 15.2106 15.6012 15.6011C15.2107 15.9917 14.5775 15.9917 14.187 15.6011L11.4581 12.8723Z" fill="white"/>
</svg>
