<svg width="18" height="18" viewBox="0 0 18 18" fill="none" xmlns="http://www.w3.org/2000/svg">
<mask id="path-1-inside-1_113_33" fill="white">
<path fill-rule="evenodd" clip-rule="evenodd" d="M4.38988 4.32007H4C1.79086 4.32007 0 6.11093 0 8.32007V14.0001C0 16.2092 1.79086 18.0001 4 18.0001H14C16.2091 18.0001 18 16.2092 18 14.0001V8.32007C18 6.11093 16.2091 4.32007 14 4.32007H13.6059C13.2723 5.96328 11.8195 7.20007 10.0779 7.20007H7.91787C6.17622 7.20007 4.72344 5.96328 4.38988 4.32007Z"/>
</mask>
<path fill-rule="evenodd" clip-rule="evenodd" d="M4.38988 4.32007H4C1.79086 4.32007 0 6.11093 0 8.32007V14.0001C0 16.2092 1.79086 18.0001 4 18.0001H14C16.2091 18.0001 18 16.2092 18 14.0001V8.32007C18 6.11093 16.2091 4.32007 14 4.32007H13.6059C13.2723 5.96328 11.8195 7.20007 10.0779 7.20007H7.91787C6.17622 7.20007 4.72344 5.96328 4.38988 4.32007Z" fill="white"/>
<path d="M4.38988 4.32007L5.3699 4.12114L5.20729 3.32007H4.38988V4.32007ZM13.6059 4.32007V3.32007H12.7885L12.6258 4.12114L13.6059 4.32007ZM4 5.32007H4.38988V3.32007H4V5.32007ZM1 8.32007C1 6.66322 2.34315 5.32007 4 5.32007V3.32007C1.23858 3.32007 -1 5.55865 -1 8.32007H1ZM1 14.0001V8.32007H-1V14.0001H1ZM4 17.0001C2.34315 17.0001 1 15.6569 1 14.0001H-1C-1 16.7615 1.23858 19.0001 4 19.0001V17.0001ZM14 17.0001H4V19.0001H14V17.0001ZM17 14.0001C17 15.6569 15.6569 17.0001 14 17.0001V19.0001C16.7614 19.0001 19 16.7615 19 14.0001H17ZM17 8.32007V14.0001H19V8.32007H17ZM14 5.32007C15.6569 5.32007 17 6.66321 17 8.32007H19C19 5.55864 16.7614 3.32007 14 3.32007V5.32007ZM13.6059 5.32007H14V3.32007H13.6059V5.32007ZM12.6258 4.12114C12.385 5.30748 11.3346 6.20007 10.0779 6.20007V8.20007C12.3045 8.20007 14.1596 6.61908 14.5859 4.519L12.6258 4.12114ZM10.0779 6.20007H7.91787V8.20007H10.0779V6.20007ZM7.91787 6.20007C6.66118 6.20007 5.61071 5.30748 5.3699 4.12114L3.40987 4.519C3.83616 6.61908 5.69127 8.20007 7.91787 8.20007V6.20007Z" fill="white" mask="url(#path-1-inside-1_113_33)"/>
<mask id="path-3-inside-2_113_33" fill="white">
<path d="M4.31836 3.96C4.31836 1.77295 6.09131 0 8.27836 0H9.71836C11.9054 0 13.6784 1.77295 13.6784 3.96C13.6784 6.14705 11.9054 7.92 9.71836 7.92H8.27836C6.09131 7.92 4.31836 6.14705 4.31836 3.96Z"/>
</mask>
<path d="M8.27836 2H9.71836V-2H8.27836V2ZM9.71836 5.92H8.27836V9.92H9.71836V5.92ZM8.27836 5.92C7.19588 5.92 6.31836 5.04248 6.31836 3.96H2.31836C2.31836 7.25162 4.98674 9.92 8.27836 9.92V5.92ZM11.6784 3.96C11.6784 5.04248 10.8008 5.92 9.71836 5.92V9.92C13.01 9.92 15.6784 7.25162 15.6784 3.96H11.6784ZM9.71836 2C10.8008 2 11.6784 2.87752 11.6784 3.96H15.6784C15.6784 0.668382 13.01 -2 9.71836 -2V2ZM8.27836 -2C4.98674 -2 2.31836 0.668384 2.31836 3.96H6.31836C6.31836 2.87752 7.19588 2 8.27836 2V-2Z" fill="white" mask="url(#path-3-inside-2_113_33)"/>
</svg>
