<svg width="18" height="18" viewBox="0 0 18 18" fill="none" xmlns="http://www.w3.org/2000/svg">
<mask id="path-1-inside-1_113_24" fill="white">
<path fill-rule="evenodd" clip-rule="evenodd" d="M4 0C1.79086 0 0 1.79086 0 4V9.67964C0 11.8888 1.79086 13.6796 4 13.6796H4.79986C4.49061 12.8998 4.32063 12.0495 4.32063 11.1595C4.32063 7.382 7.38293 4.31971 11.1605 4.31971C12.0501 4.31971 12.9 4.48955 13.6796 4.79857V4C13.6796 1.79086 11.8888 0 9.67963 0H4Z"/>
</mask>
<path fill-rule="evenodd" clip-rule="evenodd" d="M4 0C1.79086 0 0 1.79086 0 4V9.67964C0 11.8888 1.79086 13.6796 4 13.6796H4.79986C4.49061 12.8998 4.32063 12.0495 4.32063 11.1595C4.32063 7.382 7.38293 4.31971 11.1605 4.31971C12.0501 4.31971 12.9 4.48955 13.6796 4.79857V4C13.6796 1.79086 11.8888 0 9.67963 0H4Z" fill="white"/>
<path d="M4.79986 13.6796V14.6796H6.27216L5.72944 13.311L4.79986 13.6796ZM13.6796 4.79857L13.3112 5.7282L14.6796 6.27063V4.79857H13.6796ZM1 4C1 2.34315 2.34315 1 4 1V-1C1.23858 -1 -1 1.23858 -1 4H1ZM1 9.67964V4H-1V9.67964H1ZM4 12.6796C2.34315 12.6796 1 11.3365 1 9.67964H-1C-1 12.4411 1.23858 14.6796 4 14.6796V12.6796ZM4.79986 12.6796H4V14.6796H4.79986V12.6796ZM5.72944 13.311C5.46595 12.6465 5.32063 11.9212 5.32063 11.1595H3.32063C3.32063 12.1778 3.51527 13.153 3.87028 14.0483L5.72944 13.311ZM5.32063 11.1595C5.32063 7.93428 7.93521 5.31971 11.1605 5.31971V3.31971C6.83064 3.31971 3.32063 6.82971 3.32063 11.1595H5.32063ZM11.1605 5.31971C11.9218 5.31971 12.6469 5.4649 13.3112 5.7282L14.0481 3.86893C13.1531 3.51419 12.1783 3.31971 11.1605 3.31971V5.31971ZM12.6796 4V4.79857H14.6796V4H12.6796ZM9.67963 1C11.3365 1 12.6796 2.34315 12.6796 4H14.6796C14.6796 1.23858 12.4411 -1 9.67963 -1V1ZM4 1H9.67963V-1H4V1Z" fill="white" mask="url(#path-1-inside-1_113_24)"/>
<rect x="5.32031" y="5.31982" width="11.6796" height="11.6796" rx="3" stroke="white" stroke-width="2"/>
</svg>
