<svg width="16" height="16" viewBox="0 0 16 16" fill="none" xmlns="http://www.w3.org/2000/svg">
<path fill-rule="evenodd" clip-rule="evenodd" d="M4.18074 0C3.25703 0 2.50821 0.748815 2.50821 1.67253C2.50821 2.59624 3.25703 3.34505 4.18074 3.34505H11.7071C12.6308 3.34505 13.3796 2.59624 13.3796 1.67253C13.3796 0.748815 12.6308 0 11.7071 0H4.18074ZM3 5.01757C1.34315 5.01757 0 6.36071 0 8.01757V12.0527C0 13.7096 1.34314 15.0527 3 15.0527H12.889C14.5459 15.0527 15.889 13.7096 15.889 12.0527V8.01757C15.889 6.36071 14.5459 5.01757 12.889 5.01757H3Z" fill="white"/>
</svg>
